<svg width="13" height="13" viewBox="0 0 13 13" fill="none" xmlns="http://www.w3.org/2000/svg">
<path d="M10.7656 11.375C9.66424 11.375 8.56962 11.1042 7.48177 10.5625C6.39392 10.0208 5.41667 9.31667 4.55 8.45C3.68333 7.58333 2.97917 6.60608 2.4375 5.51823C1.89583 4.43038 1.625 3.33576 1.625 2.23438C1.625 2.06285 1.68368 1.9184 1.80104 1.80104C1.9184 1.68368 2.06285 1.625 2.23438 1.625H4.13021C4.2566 1.625 4.36719 1.66788 4.46198 1.75365C4.55677 1.83941 4.61771 1.95451 4.64479 2.09896L5.01042 3.80521C5.02847 3.9316 5.02622 4.0467 5.00365 4.15052C4.98108 4.25434 4.93368 4.34236 4.86146 4.41458L3.50729 5.78229C4.01285 6.62187 4.57934 7.35313 5.20677 7.97604C5.8342 8.59896 6.54514 9.12708 7.33958 9.56042L8.62604 8.23333C8.71632 8.13403 8.82014 8.06406 8.9375 8.02344C9.05486 7.98281 9.17222 7.97604 9.28958 8.00313L10.901 8.35521C11.0365 8.38229 11.1493 8.45 11.2396 8.55833C11.3299 8.66667 11.375 8.79306 11.375 8.9375V10.7656C11.375 10.9372 11.3163 11.0816 11.199 11.199C11.0816 11.3163 10.9372 11.375 10.7656 11.375Z" fill="white"/>
</svg>
